<?xml version="1.0" standalone="no"?>
<!DOCTYPE svg PUBLIC "-//W3C//DTD SVG 20010904//EN"
 "http://www.w3.org/TR/2001/REC-SVG-20010904/DTD/svg10.dtd">
<svg version="1.0" xmlns="http://www.w3.org/2000/svg"
 width="500.000000pt" height="500.000000pt" viewBox="0 0 500.000000 500.000000"
 preserveAspectRatio="xMidYMid meet">

<g transform="translate(0.000000,500.000000) scale(0.100000,-0.100000)"
fill="#000000" stroke="none">
<path d="M3485 4123 c-11 -2 -114 -22 -230 -44 -557 -105 -801 -152 -1075
-204 -69 -14 -165 -31 -215 -40 -135 -24 -125 -18 -109 -72 16 -53 19 -203 4
-203 -5 0 -10 -9 -10 -20 0 -24 10 -24 104 -6 47 9 80 11 103 4 18 -5 37 -7
42 -3 5 3 11 0 13 -6 3 -9 9 -9 26 0 17 9 21 9 17 -2 -4 -8 5 -14 27 -15 18
-2 35 -6 38 -11 7 -11 89 -30 111 -26 21 4 20 7 20 -128 1 -56 3 -68 15 -63 9
3 12 1 9 -4 -3 -6 -14 -10 -23 -11 -14 0 -13 -2 3 -8 13 -5 1 -8 -36 -7 -48 0
-54 2 -40 13 19 15 7 17 -19 3 -16 -9 -19 -8 -13 7 3 10 3 15 -2 11 -4 -4 -13
-4 -19 1 -18 14 -69 23 -61 11 3 -5 -10 -1 -30 11 -21 12 -46 19 -60 17 -13
-3 -22 -2 -20 2 6 10 -152 55 -183 52 -13 -1 -20 2 -17 8 4 6 3 10 -2 9 -11
-3 -55 8 -147 37 -43 14 -81 23 -84 20 -3 -4 0 -6 7 -6 7 0 9 -4 6 -10 -4 -6
-11 -5 -19 3 -8 6 -12 15 -9 20 2 4 -5 7 -16 7 -30 0 -34 1 -53 11 -11 6 -18
6 -18 0 0 -5 4 -11 9 -13 5 -1 2 -10 -7 -18 -14 -13 -15 -12 -9 4 6 16 3 17
-20 12 l-28 -6 24 13 c17 10 20 16 11 22 -7 4 -16 2 -21 -6 -7 -11 -9 -10 -9
4 0 9 -7 17 -15 17 -12 0 -15 17 -15 93 l0 94 -40 18 c-22 10 -38 21 -35 25 2
3 -6 6 -18 5 -21 -2 -22 -6 -24 -111 -4 -144 -2 -151 48 -164 22 -6 47 -14 56
-17 10 -4 14 -2 10 4 -4 5 0 19 9 29 14 18 15 18 5 -2 -8 -16 -7 -25 2 -32 6
-5 102 -32 212 -60 110 -28 226 -58 259 -67 32 -9 66 -13 74 -10 9 3 13 3 9
-2 -9 -8 152 -55 170 -48 6 2 13 0 15 -4 2 -5 73 -25 158 -46 85 -20 159 -39
165 -41 6 -3 11 5 11 16 0 22 -12 27 -18 8 -4 -10 -11 -10 -29 -2 -23 11 -23
11 14 18 32 6 37 11 37 34 0 15 -5 45 -11 67 -22 84 -22 88 -10 81 9 -6 11 5
9 40 -3 46 -5 49 -33 51 -16 1 -62 13 -101 27 -49 16 -76 21 -88 14 -12 -7
-16 -6 -14 4 2 7 -8 14 -22 16 -14 2 -28 7 -33 11 -7 7 62 20 253 46 58 8 294
42 525 75 231 33 440 63 465 66 72 9 77 19 16 33 -31 7 -54 16 -51 21 3 4 28
11 56 15 48 7 52 10 70 49 23 50 24 128 4 187 -15 41 -42 80 -54 78 -3 -1 -15
-3 -26 -6z m-337 -209 c96 -26 -102 -104 -428 -168 -153 -30 -379 -45 -437
-30 -122 33 250 152 612 197 52 7 229 7 253 1z m-1719 -241 c2 -2 2 -6 -2 -9
-7 -7 -67 27 -67 38 0 5 37 -10 69 -29z m-79 -70 c0 -24 -3 -33 -9 -25 -7 12
-4 62 5 62 2 0 4 -17 4 -37z m884 -71 c3 -5 -8 -9 -25 -9 -19 0 -25 3 -17 9
17 10 35 10 42 0z m-877 -39 c-3 -10 -5 -4 -5 12 0 17 2 24 5 18 2 -7 2 -21 0
-30z m1033 -33 c8 -5 11 -12 8 -16 -4 -3 -14 1 -23 10 -18 17 -9 21 15 6z
m-820 -20 c18 -12 2 -12 -25 0 -13 6 -15 9 -5 9 8 0 22 -4 30 -9z m117 -18
c-15 -2 -25 -8 -22 -13 3 -5 -1 -6 -10 -3 -14 6 -14 8 1 19 10 7 27 10 38 6
18 -5 18 -6 -7 -9z m143 -32 c8 -5 11 -10 5 -10 -5 0 -17 5 -25 10 -8 5 -10
10 -5 10 6 0 17 -5 25 -10z m-23 -16 c-3 -3 -12 -4 -19 -1 -8 3 -5 6 6 6 11 1
17 -2 13 -5z m40 -10 c-3 -3 -12 -4 -19 -1 -8 3 -5 6 6 6 11 1 17 -2 13 -5z
m103 -9 c0 -2 -9 -3 -19 -2 -11 0 -18 5 -15 9 4 6 34 0 34 -7z m265 -75 c3 -5
2 -10 -4 -10 -5 0 -13 5 -16 10 -3 6 -2 10 4 10 5 0 13 -4 16 -10z m152 -46
c-3 -3 -12 -4 -19 -1 -8 3 -5 6 6 6 11 1 17 -2 13 -5z"/>
<path d="M3817 3119 c7 -7 15 -10 18 -7 3 3 -2 9 -12 12 -14 6 -15 5 -6 -5z"/>
<path d="M3572 3040 l3 -52 -90 -39 c-49 -21 -120 -51 -157 -65 -37 -15 -65
-31 -62 -35 3 -5 -2 -6 -11 -3 -9 4 -25 -2 -36 -12 -12 -11 -23 -18 -25 -16
-13 7 -34 0 -28 -10 4 -7 3 -8 -4 -4 -6 4 -83 -22 -171 -58 l-159 -65 -142 35
c-77 19 -192 46 -255 59 -63 14 -211 47 -329 75 -118 27 -218 50 -223 49 -9 0
70 -28 270 -95 75 -25 139 -49 142 -53 2 -5 -26 -13 -63 -20 l-67 -12 -85 39
c-124 58 -200 92 -205 92 -2 0 -51 22 -108 49 -91 44 -263 99 -273 88 -2 -2
138 -69 311 -148 l315 -144 0 -137 c0 -76 -3 -138 -6 -138 -6 0 -170 77 -536
254 -129 62 -178 81 -178 70 0 -10 75 -52 218 -121 258 -125 409 -197 477
-228 l50 -22 265 47 c146 27 348 64 450 83 102 20 275 52 385 72 296 53 568
105 585 112 8 3 19 5 24 4 5 -1 32 3 61 9 l52 11 7 171 c4 94 3 175 -1 179 -5
5 -22 5 -38 0 -61 -19 -190 -39 -200 -31 -5 4 -37 18 -70 30 -105 38 -97 40
-93 -20z"/>
<path d="M3796 2477 c-3 -17 -4 -32 -1 -35 2 -3 29 6 60 20 l55 25 -54 9 -54
10 -6 -29z"/>
<path d="M3510 2350 c-47 -9 -139 -27 -205 -39 -66 -12 -383 -70 -705 -129
l-585 -108 -80 37 c-44 20 -179 84 -299 143 -121 58 -221 104 -223 102 -4 -3
9 -86 22 -151 6 -30 6 -30 -114 -85 -67 -30 -117 -57 -113 -61 4 -3 66 -13
137 -23 72 -9 438 -61 815 -115 613 -89 688 -98 712 -85 23 12 42 11 155 -10
70 -13 129 -23 130 -22 2 1 -4 36 -13 77 -20 94 -15 204 12 250 15 26 39 41
109 72 189 83 360 159 364 163 8 7 -34 2 -119 -16z"/>
<path d="M1074 1995 c-34 -34 -50 -122 -35 -190 19 -85 30 -93 146 -109 95
-13 113 -20 385 -145 157 -73 318 -146 357 -164 l73 -32 0 -137 c0 -76 -4
-138 -8 -138 -4 0 -165 76 -357 168 -320 155 -350 167 -355 148 -4 -13 -25
-28 -60 -42 -64 -25 -74 -41 -91 -137 -16 -98 -7 -396 15 -463 l16 -51 102
-17 c57 -10 146 -26 198 -36 52 -11 354 -67 670 -125 505 -92 779 -143 873
-161 28 -6 39 -1 472 206 83 40 231 110 330 157 179 84 203 98 193 108 -5 6
-62 -19 -238 -103 -58 -27 -233 -111 -389 -186 -157 -75 -290 -136 -296 -136
-36 0 -57 396 -27 500 13 43 17 46 90 79 63 28 382 174 810 372 36 17 62 35
62 44 0 20 -10 19 -74 -10 -30 -14 -59 -25 -64 -25 -11 0 -13 34 -15 215 l-2
139 -43 -3 c-24 -1 -50 3 -58 10 -8 6 -17 9 -21 5 -3 -3 -1 -6 6 -6 29 0 -3
-19 -42 -25 -23 -3 -55 -9 -71 -12 -19 -3 -26 -2 -22 6 9 14 -31 30 -56 23
-32 -8 -19 -18 20 -15 32 2 33 1 12 -6 -22 -8 -22 -9 -5 -11 11 -1 14 -4 8 -7
-10 -3 -13 -51 -13 -189 0 -149 -3 -184 -14 -184 -7 0 -28 -3 -45 -6 -18 -4
-31 -3 -30 2 1 5 1 84 0 177 -1 160 -2 167 -21 167 -19 0 -20 -7 -20 -180 0
-136 -3 -182 -12 -185 -7 -2 -30 -6 -50 -10 l-38 -6 -2 177 -3 178 -28 7 c-16
4 -25 3 -21 -2 3 -5 -8 -9 -25 -9 -16 0 -36 -3 -44 -6 -10 -4 -15 0 -13 10 3
19 16 34 16 18 0 -7 9 -12 20 -12 26 0 26 16 -1 23 -27 7 -67 -7 -51 -17 19
-11 5 -25 -21 -19 -16 3 -18 2 -8 -5 13 -9 -21 -19 -84 -24 -11 -1 -23 -7 -27
-12 -5 -8 -8 -7 -8 1 0 16 31 32 49 25 8 -2 11 0 7 6 -3 5 1 13 10 16 8 3 12
2 9 -4 -3 -6 -2 -10 3 -10 6 0 12 7 16 15 3 8 11 15 18 15 22 1 62 36 49 44
-9 6 -174 -77 -353 -178 l-46 -27 -20 28 c-46 64 -52 180 -13 255 l17 34 -261
33 c-143 18 -357 46 -475 61 -118 16 -359 47 -535 69 -176 23 -342 45 -369 50
-44 8 -52 6 -72 -14z m421 -179 l24 -24 -26 -17 c-24 -16 -26 -16 -46 4 -20
20 -20 21 -2 41 23 25 21 25 50 -4z m152 -18 c21 -20 22 -23 6 -40 -22 -25
-41 -23 -55 7 -8 19 -8 28 2 40 16 20 19 19 47 -7z m157 -20 c15 -21 14 -24
-4 -42 -19 -19 -20 -19 -40 -1 -25 22 -26 41 -2 54 24 15 29 14 46 -11z m148
-15 c24 -21 23 -35 -4 -52 -19 -12 -23 -11 -39 10 -16 22 -16 25 -2 41 20 22
22 22 45 1z m158 -67 c-19 -20 -20 -20 -45 4 l-25 24 21 22 21 23 23 -27 c23
-27 24 -27 5 -46z m155 -16 c-24 -26 -31 -25 -51 5 -16 24 -16 27 2 44 19 19
20 18 43 -5 24 -23 24 -24 6 -44z m-183 -101 c39 -6 100 -24 137 -41 84 -38
151 -59 151 -47 0 5 -27 21 -60 36 -33 14 -59 27 -58 28 11 9 215 -28 247 -45
22 -11 47 -20 56 -20 13 0 15 -25 15 -179 0 -199 6 -183 -72 -197 l-38 -6 0
177 0 176 -22 -3 c-23 -3 -23 -5 -26 -179 -2 -173 -3 -177 -25 -183 -59 -16
-57 -21 -57 164 l0 170 -35 0 c-19 0 -35 4 -35 10 0 5 8 7 18 3 22 -8 14 1
-15 16 -20 10 -21 9 -18 -17 2 -15 1 -21 -2 -13 -3 7 -8 9 -12 4 -9 -14 -61
-25 -61 -14 0 5 8 12 18 14 13 4 11 5 -5 6 -17 1 -23 -5 -23 -19 0 -19 -27
-26 -90 -22 -8 0 -17 -3 -20 -8 -3 -5 -37 7 -75 25 -39 19 -77 34 -84 35 -11
0 -12 3 -3 12 8 8 15 8 27 -2 13 -11 14 -10 9 4 -3 9 -1 16 5 16 6 0 11 -5 11
-12 0 -9 3 -9 12 0 17 17 31 15 24 -3 -3 -8 0 -15 6 -15 7 0 7 -4 -1 -14 -9
-10 -8 -15 3 -19 11 -4 13 3 11 34 -2 21 1 41 5 44 5 3 27 1 49 -4 24 -5 39
-5 35 0 -3 5 -1 9 5 9 5 0 13 -4 16 -10 3 -5 12 -10 18 -10 7 0 6 4 -3 10 -13
8 -13 10 2 10 9 0 20 -4 23 -10 3 -5 12 -10 18 -9 8 0 7 3 -2 6 -9 4 -10 8 -2
12 6 4 -30 24 -79 46 -118 50 -118 53 2 34z m-121 -80 c10 -6 6 -9 -14 -9 -15
0 -41 -7 -57 -15 -19 -10 -30 -11 -30 -5 0 6 -3 9 -8 7 -4 -3 -22 3 -41 13
l-34 17 85 1 c47 0 91 -4 99 -9z m1834 -164 c-130 -62 -266 -125 -270 -125 -2
0 -41 -18 -87 -39 -46 -21 -135 -62 -198 -91 -63 -28 -136 -62 -161 -75 l-46
-24 -123 24 c-68 14 -125 23 -126 22 -2 -1 -8 -43 -15 -92 -7 -58 -10 -164 -7
-298 5 -207 5 -208 -16 -205 -17 2 -22 12 -28 53 -15 114 -6 449 14 535 2 7
-12 18 -31 24 -33 12 -32 13 81 40 87 21 127 26 165 20 43 -5 59 -2 103 20 28
14 57 23 63 19 7 -3 9 -2 4 2 -17 19 91 53 558 174 178 46 185 47 120 16z
m-2400 -55 c3 -5 -2 -49 -11 -97 -13 -70 -15 -126 -11 -273 3 -102 8 -195 12
-206 6 -19 3 -21 -19 -17 -36 7 -41 41 -41 283 0 230 13 320 45 320 10 0 22
-4 25 -10z"/>
<path d="M2205 1460 c3 -5 11 -10 16 -10 6 0 7 5 4 10 -3 6 -11 10 -16 10 -6
0 -7 -4 -4 -10z"/>
<path d="M2020 1446 c0 -9 6 -16 14 -16 8 0 21 -3 30 -6 9 -3 16 -2 16 4 0 5
-8 12 -17 16 -10 3 -24 9 -30 12 -8 3 -13 -1 -13 -10z"/>
<path d="M1838 1493 c7 -3 16 -2 19 1 4 3 -2 6 -13 5 -11 0 -14 -3 -6 -6z"/>
<path d="M3426 1819 c-51 -26 -75 -44 -69 -50 18 -18 65 -13 104 12 38 24 78
39 102 39 20 0 19 2 -8 20 -16 11 -34 20 -40 19 -5 0 -45 -18 -89 -40z"/>
<path d="M3580 1810 c-12 -7 -10 -9 7 -7 12 0 19 5 17 9 -6 10 -6 10 -24 -2z"/>
<path d="M3555 1780 c-8 -12 20 -24 35 -15 5 3 10 10 10 16 0 12 -37 12 -45
-1z"/>
<path d="M3457 1759 c6 -6 9 -17 7 -23 -2 -6 7 -12 20 -12 18 -1 23 2 19 14
-4 10 -2 13 5 8 7 -4 12 -2 12 4 0 8 -9 10 -25 6 -14 -4 -25 -2 -25 4 0 5 -5
10 -12 10 -9 0 -9 -3 -1 -11z"/>
<path d="M3660 1758 l-25 -10 23 -11 c16 -7 28 -7 45 2 22 11 22 11 0 7 -15
-3 -20 0 -16 10 6 16 6 16 -27 2z"/>
<path d="M3767 1739 c7 -7 15 -10 18 -7 3 3 -2 9 -12 12 -14 6 -15 5 -6 -5z"/>
<path d="M3263 1715 c11 -7 25 -11 33 -8 22 8 6 23 -24 23 -25 -1 -26 -2 -9
-15z"/>
<path d="M3348 1683 c7 -3 16 -2 19 1 4 3 -2 6 -13 5 -11 0 -14 -3 -6 -6z"/>
</g>
</svg>
